<svg id="Layer_5" enable-background="new 0 0 64 64" height="512" viewBox="0 0 64 64" width="512" xmlns="http://www.w3.org/2000/svg" xmlns:xlink="http://www.w3.org/1999/xlink"><linearGradient id="SVGID_1_" gradientUnits="userSpaceOnUse" x1="32" x2="32" y1="63" y2="1"><stop offset="0" stop-color="#9f2fff"/><stop offset="1" stop-color="#0bb1d3"/></linearGradient><path d="m53.628 25.138c.872-1.19 1.372-2.638 1.372-4.138v-16c0-2.206-1.794-4-4-4s-4 1.794-4 4c-1.103 0-2 .897-2 2v1.757c0 1.068.416 2.073 1.172 2.829l.828.828v7.751c0 .509-.441.926-.984.821l-9.945-1.808c.152-.746.589-1.436 1.277-1.944 2.287-1.691 3.652-4.395 3.652-7.234 0-2.56-1.096-5.007-3.006-6.714-1.909-1.706-4.475-2.517-7.039-2.227-4.051.458-7.365 3.723-7.88 7.763-.418 3.283.977 6.524 3.641 8.458.65.472 1.073 1.164 1.217 1.912l-9.953 1.794c-.503.096-.98-.312-.98-.82v-7.751l.828-.828c.756-.756 1.172-1.761 1.172-2.83v-1.757c0-1.103-.897-2-2-2 0-2.206-1.794-4-4-4s-4 1.794-4 4v16c0 1.5.5 2.948 1.372 4.138-2.379 1.562-4.179 3.856-5.128 6.568l-4.188 11.964-.056.179v.17c0 2.195 1.786 3.981 3.981 3.981 1.448 0 2.748-.77 3.451-2h.669c1.858 0 3.59-.75 4.874-2h2.318c2.307 0 4.409-1.112 5.708-2.954v21.954h9 2 9v-21.954c1.298 1.842 3.4 2.954 5.707 2.954h2.317c1.284 1.25 3.016 2 4.874 2h.669c.703 1.23 2.002 2 3.451 2 2.195 0 3.981-1.786 3.981-4v-.17l-4.244-12.125c-.949-2.712-2.749-5.005-5.128-6.567zm-6.628-18.138c1.103 0 2 .897 2 2h2c0-1.474-.81-2.75-2-3.444v-.556c0-1.103.897-2 2-2s2 .897 2 2v6h-4.586l-.828-.828c-.378-.378-.586-.88-.586-1.415zm-.834 16c1.563 0 2.834-1.271 2.834-2.834v-7.166h4v8c0 1.565-.748 3.061-2 4-.859.645-1.925 1-3 1h-8v16h-10v-2.619l.41-.461c4.336-4.879 7.154-10.826 8.229-17.242l7.016 1.276c.168.03.339.046.511.046zm-11.577 5.545-1.429-1.714 2.444-5.704 1.067.194c-.415 2.498-1.115 4.917-2.082 7.224zm-2.589-4.084-1.484-3.461h2.967zm-3.605-3.335 2.444 5.704-1.429 1.714c-.971-2.318-1.674-4.744-2.089-7.223zm3.605 7.436 1.663 1.996c-.505 1.006-1.052 1.991-1.661 2.941-.607-.951-1.161-1.933-1.666-2.942zm-6.94-19.487c.4-3.137 2.974-5.673 6.12-6.029 2.025-.229 3.975.385 5.481 1.731 1.486 1.328 2.339 3.232 2.339 5.223 0 2.24-1.036 4.291-2.841 5.626-1.159.857-1.894 2.06-2.096 3.374h-1.063v-6.184c1.161-.414 2-1.514 2-2.816 0-1.654-1.346-3-3-3s-3 1.346-3 3c0 1.302.839 2.402 2 2.816v6.184h-1.062c-.201-1.314-.93-2.527-2.047-3.337-2.073-1.505-3.158-4.03-2.831-6.588zm5.94.925c0-.551.449-1 1-1s1 .449 1 1-.449 1-1 1-1-.449-1-1zm-13.166 13c.172 0 .343-.016.507-.046l7.013-1.275c.816 4.849 2.674 9.511 5.423 13.59-.587.796-1.199 1.576-1.862 2.322l-.915 1.028v3.381h-4v-16h-8c-1.075 0-2.141-.355-3-1-1.252-.939-2-2.434-2-4v-8h4v7.166c0 1.563 1.271 2.834 2.834 2.834zm-4.834-20c1.103 0 2 .897 2 2v.556c-1.19.694-2 1.97-2 3.444h2c0-1.103.897-2 2-2v1.757c0 .534-.208 1.037-.586 1.415l-.828.828h-4.586v-6c0-1.103.897-2 2-2zm7.764 36.236c-.852 1.705-2.566 2.764-4.472 2.764h-.879c.026-.054.06-.102.084-.157l2.417-5.437-1.827-.813-2.417 5.437c-.776 1.748-2.486 2.887-4.387 2.956l4.646-11.615-1.857-.743-5.25 13.126c-.303.757-1.026 1.246-1.841 1.246-1.042 0-1.898-.808-1.976-1.847l4.125-11.787c.847-2.42 2.501-4.438 4.679-5.76 1.204.899 2.69 1.394 4.191 1.394h6v8.764zm12.236 21.764v-8.838c0-1.46.931-2.751 2.316-3.214l-.633-1.896c-1.112.371-2.037 1.078-2.684 1.985-.646-.907-1.572-1.615-2.684-1.985l-.633 1.896c1.387.463 2.318 1.754 2.318 3.214v8.838h-7v-17h16v17zm26.019-15c-.815 0-1.537-.489-1.839-1.245l-5.25-13.126-1.857.743 4.646 11.615c-1.901-.07-3.611-1.209-4.388-2.956l-2.417-5.437-1.827.813 2.416 5.437c.024.055.058.103.084.157h-.879c-1.906 0-3.62-1.059-4.472-2.764l-1.236-2.473v-8.764h6c1.501 0 2.988-.495 4.189-1.393 2.179 1.322 3.832 3.339 4.679 5.759l4.126 11.79c-.07 1.029-.929 1.844-1.975 1.844z" fill="url(#SVGID_1_)"/></svg>