<svg id="Layer_1" height="512" viewBox="0 0 512 512" width="512" xmlns="http://www.w3.org/2000/svg" data-name="Layer 1"><path d="m459.921 454.562v20h-180v-20a10 10 0 0 1 10-10h160a10 10 0 0 1 10 10z" fill="#6d7486"/><path d="m319.92 444.562h-30a10 10 0 0 0 -10 10v20h30v-20a10 10 0 0 1 10-10z" fill="#b0b5ca"/><path d="m245.621 245.392-151.59 112.97v-.01l-35.85-48.11 151.58-112.96z" fill="#fb6771"/><path d="m94.031 358.352v.01l-32.07 23.9a10.007 10.007 0 0 1 -14-2.05l-23.9-32.07a10.014 10.014 0 0 1 2.04-14l32.08-23.9z" fill="#edb740"/><path d="m225.76 219.282-16-22-151.58 112.96 16.254 21.811z" fill="#e75163"/><path d="m42.1 356.142 32.08-23.9 19.6 26.305.249-.185v-.01l-35.849-48.11-32.08 23.9a10.014 10.014 0 0 0 -2.04 14l14.787 19.842a10.014 10.014 0 0 1 3.253-11.842z" fill="#d8a43d"/><path d="m411.651 233.9a10.005 10.005 0 0 1 -2.04 14l-112.26 83.65a9.993 9.993 0 0 1 -13.99-2.04l-17.93-24.06a10 10 0 0 1 2.05-13.99l8.02-5.97 96.22-71.71 8.01-5.97a10.005 10.005 0 0 1 14 2.04z" fill="#6d7486"/><path d="m317.35 316.552a9.992 9.992 0 0 1 -13.989-2.04l-17.931-24.06a9.991 9.991 0 0 1 1.121-13.2l-11.05 8.236-8.02 5.97a10 10 0 0 0 -2.051 13.99l17.931 24.06a9.992 9.992 0 0 0 13.989 2.04l112.261-83.648a10.2 10.2 0 0 0 .911-.776z" fill="#b0b5ca"/><path d="m286.171 65.522a9.995 9.995 0 0 1 -2.04 13.99l-8.02 5.98-96.22 71.7-8.02 5.97a9.993 9.993 0 0 1 -13.99-2.04l-17.93-24.05a10.014 10.014 0 0 1 2.04-14l112.26-83.65a10.005 10.005 0 0 1 14 2.04z" fill="#6d7486"/><path d="m199.89 142.192-8.019 5.97a9.995 9.995 0 0 1 -13.991-2.04l-17.929-24.05a10.01 10.01 0 0 1 1.135-13.229l-19.095 14.229a10.014 10.014 0 0 0 -2.04 14l17.929 24.05a9.995 9.995 0 0 0 13.991 2.04l8.019-5.97 96.221-71.7 8.019-5.98a9.886 9.886 0 0 0 .9-.761z" fill="#b0b5ca"/><path d="m245.621 245.392-35.86-48.11-29.87-40.09 96.22-71.7 95.61 128.29-96.22 71.71-.01-.01z" fill="#b0b5ca"/><path d="m295.501 270.492-.01-.01-29.87-40.09-35.861-48.11-29.823-40.028-20.047 14.938 29.87 40.09 35.861 48.11 29.87 40.09.01.01 96.219-71.71-.045-.061z" fill="#e2e4ed"/><g fill="#284268"><path d="m267.1 284.259-3.207 2.389a16 16 0 0 0 -3.27 22.391l17.926 24.055a15.9 15.9 0 0 0 10.518 6.272 16.291 16.291 0 0 0 2.345.171 15.881 15.881 0 0 0 9.527-3.174l112.261-83.654a16 16 0 0 0 3.27-22.39l-17.926-24.055a16 16 0 0 0 -22.395-3.264l-3.207 2.39-88.435-118.679 3.207-2.39a16.018 16.018 0 0 0 3.269-22.39l-17.925-24.055a16 16 0 0 0 -22.39-3.269l-112.259 83.654a16.019 16.019 0 0 0 -3.269 22.39l17.925 24.055a16.017 16.017 0 0 0 22.391 3.27l3.208-2.391 22.705 30.47-178.85 133.279a16.018 16.018 0 0 0 -3.269 22.39l23.9 32.076a15.9 15.9 0 0 0 10.518 6.272 16.166 16.166 0 0 0 2.347.171 15.877 15.877 0 0 0 9.525-3.173l178.852-133.282zm118.6-72.436a4.013 4.013 0 0 1 3.215 1.611l17.927 24.056a4 4 0 0 1 -.818 5.6l-112.258 83.651a4 4 0 0 1 -5.6-.817l-17.927-24.056a4 4 0 0 1 .818-5.6l112.258-83.654a3.974 3.974 0 0 1 2.385-.791zm-223.012-54.287-17.925-24.055a4 4 0 0 1 .816-5.6l112.259-83.652a4 4 0 0 1 5.6.817l17.923 24.054a4 4 0 0 1 -.817 5.6l-8.015 5.973-104.243 77.68a4 4 0 0 1 -5.598-.817zm112.2-63.654 88.435 118.673-86.6 64.533-88.437-118.673zm-216.518 283.563a4 4 0 0 1 -5.6-.818l-23.9-32.073a4.005 4.005 0 0 1 .816-5.6l27.265-20.314 28.682 38.489zm36.886-27.487-28.682-38.489 141.966-105.792 28.682 38.489z"/><path d="m489.922 468.564h-24v-14a16.019 16.019 0 0 0 -16-16h-160a16.019 16.019 0 0 0 -16 16v14h-24a6 6 0 1 0 0 12h240a6 6 0 0 0 0-12zm-204-14a4 4 0 0 1 4-4h160a4 4 0 0 1 4 4v14h-168z"/><path d="m249.6 435.581 47.735-23.938a6 6 0 0 0 -5.379-10.727l-47.735 23.938a6 6 0 1 0 5.379 10.727z"/><path d="m294.646 378.534a6 6 0 0 0 2.021-11.651l-58.644-20.983a6 6 0 0 0 -4.043 11.3l58.644 20.981a5.993 5.993 0 0 0 2.022.353z"/><path d="m413.152 296.607a6 6 0 0 0 8.343 1.546l46.294-31.82a6 6 0 0 0 -6.8-9.889l-46.289 31.821a6 6 0 0 0 -1.548 8.342z"/><path d="m423.094 326a6 6 0 0 0 4.91 6.92l50.764 8.623a6 6 0 1 0 2.009-11.83l-50.763-8.623a6 6 0 0 0 -6.92 4.91z"/></g></svg>