<svg id="Capa_1" enable-background="new 0 0 512 512" height="512" viewBox="0 0 512 512" width="512" xmlns="http://www.w3.org/2000/svg"><g><g><path d="m331 0v30h-60v45h-30v-75z" fill="#ffa64d"/></g><path d="m331 0v30h-60v45h-15v-75z" fill="#f73"/><path d="m391 196h-270c0-74.399 60.601-136 135-136s135 61.601 135 136z" fill="#efe2dd"/><path d="m391 196h-135v-136c74.399 0 135 61.601 135 136z" fill="#e1d3ce"/><path d="m151 211h210v211h-210z" fill="#53433f"/><path d="m256 211h105v211h-105z" fill="#3e322e"/><path d="m121 211h60v211h-60z" fill="#efe2dd"/><path d="m331 211h60v211h-60z" fill="#e1d3ce"/><path d="m226 211h60v211h-60z" fill="#efe2dd"/><path d="m256 211h30v211h-30z" fill="#e1d3ce"/><path d="m91 181h330v60h-330z" fill="#fff5f5"/><path d="m256 181h165v60h-165z" fill="#efe2dd"/><path d="m30 392h452v90h-452z" fill="#fff5f5"/><path d="m256 392h226v90h-226z" fill="#efe2dd"/><path d="m0 452h512v60h-512z" fill="#97de3d"/><path d="m256 452h256v60h-256z" fill="#59c36a"/></g></svg>